<mxfile host="app.diagrams.net" modified="2023-11-06T14:21:19.377Z" agent="Mozilla/5.0 (Windows NT 10.0; Win64; x64) AppleWebKit/537.36 (KHTML, like Gecko) Chrome/119.0.0.0 Safari/537.36 Edg/119.0.0.0" etag="71fF3nvBBVbfjFrDMzU1" version="22.0.8" type="device">
  <diagram name="Page-1" id="14qKL1APeOW8eNO6JGcS">
    <mxGraphModel dx="1002" dy="1665" grid="1" gridSize="10" guides="1" tooltips="1" connect="1" arrows="1" fold="1" page="1" pageScale="1" pageWidth="850" pageHeight="1100" math="0" shadow="0">
      <root>
        <mxCell id="0" />
        <mxCell id="1" parent="0" />
        <mxCell id="H2b3t9q2_gGjH0iD27m0-3" value="" style="edgeStyle=orthogonalEdgeStyle;rounded=0;orthogonalLoop=1;jettySize=auto;html=1;" edge="1" parent="1" source="H2b3t9q2_gGjH0iD27m0-1" target="H2b3t9q2_gGjH0iD27m0-2">
          <mxGeometry relative="1" as="geometry" />
        </mxCell>
        <mxCell id="H2b3t9q2_gGjH0iD27m0-1" value="start" style="ellipse;whiteSpace=wrap;html=1;" vertex="1" parent="1">
          <mxGeometry x="365" y="-330" width="120" height="80" as="geometry" />
        </mxCell>
        <mxCell id="H2b3t9q2_gGjH0iD27m0-5" value="" style="edgeStyle=orthogonalEdgeStyle;rounded=0;orthogonalLoop=1;jettySize=auto;html=1;" edge="1" parent="1" source="H2b3t9q2_gGjH0iD27m0-2" target="H2b3t9q2_gGjH0iD27m0-4">
          <mxGeometry relative="1" as="geometry" />
        </mxCell>
        <mxCell id="H2b3t9q2_gGjH0iD27m0-2" value="a,b,c" style="shape=parallelogram;perimeter=parallelogramPerimeter;whiteSpace=wrap;html=1;fixedSize=1;" vertex="1" parent="1">
          <mxGeometry x="365" y="-160" width="120" height="60" as="geometry" />
        </mxCell>
        <mxCell id="H2b3t9q2_gGjH0iD27m0-7" value="" style="edgeStyle=orthogonalEdgeStyle;rounded=0;orthogonalLoop=1;jettySize=auto;html=1;" edge="1" parent="1" target="H2b3t9q2_gGjH0iD27m0-6">
          <mxGeometry relative="1" as="geometry">
            <mxPoint x="425" y="40" as="sourcePoint" />
          </mxGeometry>
        </mxCell>
        <mxCell id="H2b3t9q2_gGjH0iD27m0-4" value="min = a" style="whiteSpace=wrap;html=1;" vertex="1" parent="1">
          <mxGeometry x="365" y="-20" width="120" height="60" as="geometry" />
        </mxCell>
        <mxCell id="H2b3t9q2_gGjH0iD27m0-9" value="" style="edgeStyle=orthogonalEdgeStyle;rounded=0;orthogonalLoop=1;jettySize=auto;html=1;" edge="1" parent="1" source="H2b3t9q2_gGjH0iD27m0-6" target="H2b3t9q2_gGjH0iD27m0-8">
          <mxGeometry relative="1" as="geometry" />
        </mxCell>
        <mxCell id="H2b3t9q2_gGjH0iD27m0-6" value="a&amp;gt;b" style="rhombus;whiteSpace=wrap;html=1;" vertex="1" parent="1">
          <mxGeometry x="385" y="110" width="80" height="80" as="geometry" />
        </mxCell>
        <mxCell id="H2b3t9q2_gGjH0iD27m0-14" value="" style="edgeStyle=orthogonalEdgeStyle;rounded=0;orthogonalLoop=1;jettySize=auto;html=1;" edge="1" parent="1" source="H2b3t9q2_gGjH0iD27m0-8" target="H2b3t9q2_gGjH0iD27m0-13">
          <mxGeometry relative="1" as="geometry" />
        </mxCell>
        <mxCell id="H2b3t9q2_gGjH0iD27m0-8" value="b&amp;gt;c" style="rhombus;whiteSpace=wrap;html=1;" vertex="1" parent="1">
          <mxGeometry x="385" y="270" width="80" height="80" as="geometry" />
        </mxCell>
        <mxCell id="H2b3t9q2_gGjH0iD27m0-12" value="đúng" style="text;html=1;align=center;verticalAlign=middle;resizable=0;points=[];autosize=1;strokeColor=none;fillColor=none;" vertex="1" parent="1">
          <mxGeometry x="415" y="208" width="50" height="30" as="geometry" />
        </mxCell>
        <mxCell id="H2b3t9q2_gGjH0iD27m0-17" value="" style="edgeStyle=orthogonalEdgeStyle;rounded=0;orthogonalLoop=1;jettySize=auto;html=1;" edge="1" parent="1" source="H2b3t9q2_gGjH0iD27m0-13" target="H2b3t9q2_gGjH0iD27m0-16">
          <mxGeometry relative="1" as="geometry" />
        </mxCell>
        <mxCell id="H2b3t9q2_gGjH0iD27m0-13" value="min =c&amp;nbsp;" style="whiteSpace=wrap;html=1;" vertex="1" parent="1">
          <mxGeometry x="365" y="440" width="120" height="60" as="geometry" />
        </mxCell>
        <mxCell id="H2b3t9q2_gGjH0iD27m0-15" value="đúng" style="text;html=1;align=center;verticalAlign=middle;resizable=0;points=[];autosize=1;strokeColor=none;fillColor=none;" vertex="1" parent="1">
          <mxGeometry x="425" y="368" width="50" height="30" as="geometry" />
        </mxCell>
        <mxCell id="H2b3t9q2_gGjH0iD27m0-19" value="" style="edgeStyle=orthogonalEdgeStyle;rounded=0;orthogonalLoop=1;jettySize=auto;html=1;" edge="1" parent="1" source="H2b3t9q2_gGjH0iD27m0-16">
          <mxGeometry relative="1" as="geometry">
            <mxPoint x="425" y="710" as="targetPoint" />
          </mxGeometry>
        </mxCell>
        <mxCell id="H2b3t9q2_gGjH0iD27m0-16" value="min" style="shape=parallelogram;perimeter=parallelogramPerimeter;whiteSpace=wrap;html=1;fixedSize=1;" vertex="1" parent="1">
          <mxGeometry x="365" y="580" width="120" height="60" as="geometry" />
        </mxCell>
        <mxCell id="H2b3t9q2_gGjH0iD27m0-20" value="end" style="ellipse;whiteSpace=wrap;html=1;" vertex="1" parent="1">
          <mxGeometry x="365" y="710" width="120" height="80" as="geometry" />
        </mxCell>
      </root>
    </mxGraphModel>
  </diagram>
</mxfile>
